# xmcd CD database file
#
# Track frame offsets:
#	150
#	20852
#	40504
#	67438
#	108960
#	138425
#	163889
#	192728
#	212211
#	233457
#
# Disc length: 3642 seconds
#
# Revision: 0
# Processed by: cddbd v1.5.2PL0 Copyright (c) Steve Scherf et al.
# Submitted via: CDex 1.70beta2
#
DISCID=960e380a
DTITLE=EGO-WRAPPIN' - Swing OF JOY and HIS Choice OF Shoes IS ILL!!
DYEAR=1999
DGENRE=Jazz
TTITLE0=Finger
TTITLE1=Rendezvous Under The Moonlight
TTITLE2=A Love Song
TTITLE3=官能漂流
TTITLE4=Calling Me-DOLPHIN MIX
TTITLE5=せつない、くだらない、むさぼるその手
TTITLE6=赤いぬくもり
TTITLE7=Mr.Richman
TTITLE8=甘い影
TTITLE9=Byrd
EXTD=YEAR: 1999
EXTT0=
EXTT1=
EXTT2=
EXTT3=
EXTT4=
EXTT5=
EXTT6=
EXTT7=
EXTT8=
EXTT9=
PLAYORDER=
